<?xml version="1.0" encoding="UTF-8" standalone="no"?>
<!DOCTYPE svg PUBLIC "-//W3C//DTD SVG 1.1//EN" "http://www.w3.org/Graphics/SVG/1.1/DTD/svg11.dtd">
<svg id="become_a_patron_8x5_white_text_on_coral" width="100%" height="100%" viewBox="0 0 160 100" version="1.1" xmlns="http://www.w3.org/2000/svg">
    <rect id="background" width="100%" height="100%" fill="#ff424d"/>
    <path aria-labelledby="Become a Patron" id="text" fill="white" d="M35.497,29.597c1.237,0.197 2.2,0.694 2.89,1.492c0.69,0.797 1.035,1.823 1.035,3.078c0,1.577 -0.556,2.867 -1.667,3.871c-1.111,1.003 -2.715,1.505 -4.811,1.505l-8.952,0l-0,-19.086l8.602,-0c2.097,-0 3.678,0.452 4.745,1.358c1.066,0.905 1.599,2.092 1.599,3.561c0,1.022 -0.3,1.909 -0.9,2.662c-0.601,0.752 -1.447,1.272 -2.541,1.559Zm-4.113,-5.941l-2.849,-0l-0,4.65l2.849,0c0.968,0 1.681,-0.215 2.138,-0.645c0.456,-0.43 0.685,-0.994 0.685,-1.693c-0,-0.699 -0.233,-1.259 -0.699,-1.68c-0.466,-0.422 -1.174,-0.632 -2.124,-0.632Zm0.296,12.688c0.986,0 1.734,-0.233 2.245,-0.699c0.51,-0.466 0.766,-1.084 0.766,-1.855c-0,-0.752 -0.251,-1.353 -0.753,-1.801c-0.502,-0.448 -1.218,-0.672 -2.15,-0.672l-3.253,0l-0,5.027l3.145,0Zm15.161,-0.161l8.71,-0l0,3.36l-13.253,0l0,-19.086l13.065,-0l-0,3.36l-8.522,0l0,4.301l8.065,0l-0,3.334l-8.065,-0l0,4.731Zm19.839,3.817c-2.975,-0 -5.269,-0.896 -6.882,-2.688c-1.613,-1.792 -2.419,-4.221 -2.419,-7.285c0,-3.029 0.838,-5.457 2.513,-7.285c1.676,-1.828 3.957,-2.742 6.842,-2.742c2.401,0 4.346,0.614 5.833,1.841c1.488,1.228 2.357,2.899 2.608,5.014l-4.597,0.806c-0.143,-1.272 -0.556,-2.258 -1.237,-2.957c-0.681,-0.699 -1.586,-1.048 -2.715,-1.048c-1.433,-0 -2.558,0.569 -3.373,1.707c-0.816,1.138 -1.223,2.684 -1.223,4.637c-0,1.918 0.416,3.45 1.25,4.597c0.833,1.147 1.993,1.72 3.481,1.72c1.057,0 1.926,-0.345 2.607,-1.035c0.681,-0.69 1.12,-1.653 1.317,-2.89l4.597,0.995c-0.466,2.061 -1.438,3.678 -2.916,4.852c-1.479,1.174 -3.374,1.761 -5.686,1.761Zm26.344,-2.688c-1.702,1.792 -3.987,2.688 -6.855,2.688c-2.867,-0 -5.152,-0.901 -6.854,-2.702c-1.703,-1.801 -2.554,-4.233 -2.554,-7.298c-0,-3.065 0.851,-5.497 2.554,-7.298c1.702,-1.801 3.987,-2.702 6.854,-2.702c2.868,-0 5.153,0.901 6.855,2.702c1.703,1.801 2.554,4.233 2.554,7.298c-0,3.065 -0.851,5.502 -2.554,7.312Zm-10.349,-2.581c0.842,1.147 2.007,1.721 3.494,1.721c1.488,-0 2.648,-0.569 3.482,-1.707c0.833,-1.138 1.25,-2.72 1.25,-4.745c-0,-2.025 -0.417,-3.607 -1.25,-4.745c-0.834,-1.138 -1.994,-1.707 -3.482,-1.707c-1.487,0 -2.652,0.569 -3.494,1.707c-0.843,1.138 -1.264,2.72 -1.264,4.745c0,2.007 0.421,3.584 1.264,4.731Zm15.672,4.812l-0,-19.086l6.236,-0l3.522,11.694c0.197,0.681 0.349,1.451 0.457,2.311l0.054,0c0.089,-0.77 0.25,-1.559 0.483,-2.365l3.361,-11.64l6.317,-0l-0,19.086l-4.14,0l0,-13.011c0,-0.788 0.036,-1.505 0.108,-2.15l-0.081,-0c-0.054,0.555 -0.188,1.174 -0.403,1.855l-3.844,13.306l-3.818,0l-4.005,-13.306c-0.197,-0.538 -0.331,-1.147 -0.403,-1.828l-0.081,-0c0.072,0.86 0.108,1.568 0.108,2.123l-0,13.011l-3.871,0Zm28.951,-3.36l8.71,-0l0,3.36l-13.253,0l0,-19.086l13.065,-0l-0,3.36l-8.522,0l0,4.301l8.065,0l-0,3.334l-8.065,-0l0,4.731Zm-98.104,43.36l-1.452,-4.462l-7.043,-0l-1.452,4.462l-4.543,0l6.936,-19.086l5.188,-0l6.935,19.086l-4.569,0Zm-7.447,-7.661l4.947,-0l-1.748,-5.323c-0.34,-1.075 -0.573,-1.971 -0.699,-2.688l-0.053,-0c-0.126,0.717 -0.359,1.613 -0.699,2.688l-1.748,5.323Zm28.226,-11.425c2.079,-0 3.741,0.547 4.987,1.64c1.245,1.093 1.868,2.545 1.868,4.355c-0,1.899 -0.623,3.4 -1.868,4.502c-1.246,1.102 -2.944,1.654 -5.094,1.654l-3.818,-0l0,6.935l-4.543,0l0,-19.086l8.468,-0Zm-1.102,8.978c1.004,0 1.788,-0.25 2.352,-0.752c0.565,-0.502 0.847,-1.201 0.847,-2.097c-0,-0.896 -0.278,-1.595 -0.833,-2.097c-0.556,-0.502 -1.345,-0.752 -2.366,-0.752l-2.823,-0l0,5.698l2.823,0Zm20.941,10.108l-1.452,-4.462l-7.043,-0l-1.451,4.462l-4.543,0l6.935,-19.086l5.188,-0l6.936,19.086l-4.57,0Zm-7.446,-7.661l4.946,-0l-1.747,-5.323c-0.341,-1.075 -0.574,-1.971 -0.699,-2.688l-0.054,-0c-0.126,0.717 -0.359,1.613 -0.699,2.688l-1.747,5.323Zm25.725,-11.425l0,3.602l-5.564,0l-0,15.484l-4.516,0l-0,-15.484l-5.538,0l0,-3.602l15.618,-0Zm13.092,19.086l-3.656,-7.312l-2.742,0l-0,7.312l-4.543,0l-0,-19.086l8.387,-0c2.348,-0 4.099,0.52 5.255,1.559c1.156,1.04 1.734,2.473 1.734,4.301c0,1.219 -0.322,2.294 -0.967,3.226c-0.646,0.932 -1.569,1.604 -2.769,2.016l4.22,7.984l-4.919,0Zm-6.398,-15.887l-0,5.457l2.93,-0c2.115,-0 3.172,-0.932 3.172,-2.796c0,-1.774 -1.057,-2.661 -3.172,-2.661l-2.93,-0Zm28.683,13.656c-1.703,1.792 -3.988,2.688 -6.855,2.688c-2.867,-0 -5.152,-0.901 -6.855,-2.702c-1.702,-1.801 -2.554,-4.233 -2.554,-7.298c0,-3.065 0.852,-5.497 2.554,-7.298c1.703,-1.801 3.988,-2.702 6.855,-2.702c2.867,-0 5.152,0.901 6.855,2.702c1.702,1.801 2.554,4.233 2.554,7.298c-0,3.065 -0.852,5.502 -2.554,7.312Zm-10.35,-2.581c0.843,1.147 2.007,1.721 3.495,1.721c1.487,-0 2.648,-0.569 3.481,-1.707c0.833,-1.138 1.25,-2.72 1.25,-4.745c0,-2.025 -0.417,-3.607 -1.25,-4.745c-0.833,-1.138 -1.994,-1.707 -3.481,-1.707c-1.488,0 -2.652,0.569 -3.495,1.707c-0.842,1.138 -1.263,2.72 -1.263,4.745c-0,2.007 0.421,3.584 1.263,4.731Zm15.672,4.812l0,-19.086l5.027,-0l6.129,10.887c0.574,1.075 0.959,1.9 1.156,2.473l0.054,0c-0,-0.233 -0.005,-0.618 -0.014,-1.156c-0.008,-0.537 -0.013,-0.967 -0.013,-1.29l0,-10.914l4.167,-0l-0,19.086l-4.839,0l-6.344,-10.995c-0.609,-1.147 -0.986,-1.926 -1.129,-2.338l-0.054,-0c0,0.251 0.005,0.654 0.014,1.209c0.009,0.556 0.013,0.995 0.013,1.318l-0,10.806l-4.167,0Z"/>
</svg>
