<?xml version="1.0" encoding="UTF-8" standalone="no"?>
<!DOCTYPE svg PUBLIC "-//W3C//DTD SVG 1.1//EN" "http://www.w3.org/Graphics/SVG/1.1/DTD/svg11.dtd">
<svg id="become_a_patron_8x5_coral_text_on_black" width="100%" height="100%" viewBox="0 0 160 100" version="1.1" xmlns="http://www.w3.org/2000/svg">
    <rect id="background" width="100%" height="100%" fill="black"/>
    <path aria-labelledby="Become a Patron" id="text" fill="#ff424d" d="M35.459,29.597c1.238,0.197 2.202,0.694 2.892,1.492c0.691,0.797 1.036,1.823 1.036,3.078c0,1.577 -0.556,2.867 -1.668,3.871c-1.112,1.003 -2.717,1.505 -4.816,1.505l-8.959,0l-0,-19.086l8.609,-0c2.099,-0 3.682,0.452 4.749,1.358c1.067,0.905 1.601,2.092 1.601,3.561c-0,1.022 -0.301,1.909 -0.902,2.662c-0.6,0.752 -1.448,1.272 -2.542,1.559Zm-4.117,-5.941l-2.851,-0l-0,4.65l2.851,0c0.969,0 1.682,-0.215 2.139,-0.645c0.458,-0.43 0.687,-0.994 0.687,-1.693c-0,-0.699 -0.234,-1.259 -0.7,-1.68c-0.466,-0.422 -1.175,-0.632 -2.126,-0.632Zm0.296,12.688c0.987,0 1.736,-0.233 2.247,-0.699c0.511,-0.466 0.767,-1.084 0.767,-1.855c-0,-0.752 -0.251,-1.353 -0.754,-1.801c-0.502,-0.448 -1.219,-0.672 -2.152,-0.672l-3.255,0l-0,5.027l3.147,0Zm15.175,-0.161l8.717,-0l-0,3.36l-13.264,0l-0,-19.086l13.076,-0l-0,3.36l-8.529,0l-0,4.301l8.071,0l0,3.334l-8.071,-0l-0,4.731Zm19.856,3.817c-2.978,-0 -5.274,-0.896 -6.888,-2.688c-1.614,-1.792 -2.421,-4.221 -2.421,-7.285c-0,-3.029 0.838,-5.457 2.515,-7.285c1.677,-1.828 3.96,-2.742 6.847,-2.742c2.404,-0 4.35,0.614 5.839,1.841c1.489,1.228 2.358,2.899 2.61,5.014l-4.601,0.806c-0.144,-1.272 -0.556,-2.258 -1.238,-2.957c-0.681,-0.699 -1.587,-1.048 -2.717,-1.048c-1.435,-0 -2.561,0.569 -3.377,1.707c-0.816,1.138 -1.224,2.684 -1.224,4.637c0,1.918 0.417,3.45 1.251,4.597c0.834,1.147 1.996,1.72 3.484,1.72c1.059,0 1.929,-0.345 2.61,-1.035c0.682,-0.69 1.121,-1.653 1.318,-2.89l4.601,0.995c-0.466,2.061 -1.439,3.678 -2.919,4.852c-1.48,1.174 -3.377,1.761 -5.69,1.761Zm26.366,-2.688c-1.704,1.792 -3.99,2.688 -6.86,2.688c-2.87,-0 -5.157,-0.901 -6.861,-2.702c-1.704,-1.801 -2.556,-4.233 -2.556,-7.298c-0,-3.065 0.852,-5.497 2.556,-7.298c1.704,-1.801 3.991,-2.702 6.861,-2.702c2.87,-0 5.156,0.901 6.86,2.702c1.704,1.801 2.556,4.233 2.556,7.298c0,3.065 -0.852,5.502 -2.556,7.312Zm-10.358,-2.581c0.843,1.147 2.009,1.721 3.498,1.721c1.488,-0 2.65,-0.569 3.484,-1.707c0.834,-1.138 1.251,-2.72 1.251,-4.745c-0,-2.025 -0.417,-3.607 -1.251,-4.745c-0.834,-1.138 -1.996,-1.707 -3.484,-1.707c-1.489,0 -2.655,0.569 -3.498,1.707c-0.843,1.138 -1.264,2.72 -1.264,4.745c-0,2.007 0.421,3.584 1.264,4.731Zm15.686,4.812l-0,-19.086l6.242,-0l3.524,11.694c0.197,0.681 0.35,1.451 0.457,2.311l0.054,0c0.09,-0.77 0.251,-1.559 0.485,-2.365l3.363,-11.64l6.322,-0l0,19.086l-4.143,0l-0,-13.011c-0,-0.788 0.036,-1.505 0.108,-2.15l-0.081,-0c-0.054,0.555 -0.188,1.174 -0.404,1.855l-3.847,13.306l-3.821,0l-4.008,-13.306c-0.198,-0.538 -0.332,-1.147 -0.404,-1.828l-0.081,-0c0.072,0.86 0.108,1.568 0.108,2.123l-0,13.011l-3.874,0Zm28.976,-3.36l8.717,-0l0,3.36l-13.264,0l0,-19.086l13.076,-0l0,3.36l-8.529,0l0,4.301l8.072,0l-0,3.334l-8.072,-0l0,4.731Zm-98.183,43.36l-1.452,-4.462l-7.049,-0l-1.453,4.462l-4.547,0l6.941,-19.086l5.193,-0l6.941,19.086l-4.574,0Zm-7.452,-7.661l4.95,-0l-1.748,-5.323c-0.341,-1.075 -0.574,-1.971 -0.7,-2.688l-0.054,-0c-0.125,0.717 -0.359,1.613 -0.699,2.688l-1.749,5.323Zm28.25,-11.425c2.081,-0 3.744,0.547 4.991,1.64c1.246,1.093 1.87,2.545 1.87,4.355c-0,1.899 -0.624,3.4 -1.87,4.502c-1.247,1.102 -2.946,1.654 -5.099,1.654l-3.82,-0l-0,6.935l-4.547,0l-0,-19.086l8.475,-0Zm-1.103,8.978c1.004,0 1.789,-0.25 2.354,-0.752c0.565,-0.502 0.848,-1.201 0.848,-2.097c-0,-0.896 -0.278,-1.595 -0.834,-2.097c-0.557,-0.502 -1.346,-0.752 -2.368,-0.752l-2.825,-0l-0,5.698l2.825,0Zm20.959,10.108l-1.453,-4.462l-7.049,-0l-1.453,4.462l-4.547,0l6.942,-19.086l5.192,-0l6.942,19.086l-4.574,0Zm-7.453,-7.661l4.951,-0l-1.749,-5.323c-0.341,-1.075 -0.574,-1.971 -0.7,-2.688l-0.054,-0c-0.125,0.717 -0.358,1.613 -0.699,2.688l-1.749,5.323Zm25.748,-11.425l0,3.602l-5.569,0l-0,15.484l-4.52,0l-0,-15.484l-5.543,0l0,-3.602l15.632,-0Zm13.103,19.086l-3.659,-7.312l-2.745,0l0,7.312l-4.546,0l-0,-19.086l8.394,-0c2.35,-0 4.103,0.52 5.26,1.559c1.157,1.04 1.735,2.473 1.735,4.301c0,1.219 -0.323,2.294 -0.968,3.226c-0.646,0.932 -1.57,1.604 -2.772,2.016l4.224,7.984l-4.923,0Zm-6.404,-15.887l0,5.457l2.933,-0c2.117,-0 3.175,-0.932 3.175,-2.796c-0,-1.774 -1.058,-2.661 -3.175,-2.661l-2.933,-0Zm28.708,13.656c-1.704,1.792 -3.991,2.688 -6.861,2.688c-2.87,-0 -5.157,-0.901 -6.861,-2.702c-1.704,-1.801 -2.556,-4.233 -2.556,-7.298c0,-3.065 0.852,-5.497 2.556,-7.298c1.704,-1.801 3.991,-2.702 6.861,-2.702c2.87,-0 5.157,0.901 6.861,2.702c1.704,1.801 2.556,4.233 2.556,7.298c-0,3.065 -0.852,5.502 -2.556,7.312Zm-10.358,-2.581c0.843,1.147 2.008,1.721 3.497,1.721c1.489,-0 2.65,-0.569 3.484,-1.707c0.834,-1.138 1.251,-2.72 1.251,-4.745c0,-2.025 -0.417,-3.607 -1.251,-4.745c-0.834,-1.138 -1.995,-1.707 -3.484,-1.707c-1.489,0 -2.654,0.569 -3.497,1.707c-0.843,1.138 -1.265,2.72 -1.265,4.745c0,2.007 0.422,3.584 1.265,4.731Zm15.685,4.812l0,-19.086l5.031,-0l6.135,10.887c0.574,1.075 0.959,1.9 1.157,2.473l0.053,0c0,-0.233 -0.004,-0.618 -0.013,-1.156c-0.009,-0.537 -0.014,-0.967 -0.014,-1.29l0,-10.914l4.171,-0l-0,19.086l-4.843,0l-6.35,-10.995c-0.61,-1.147 -0.986,-1.926 -1.13,-2.338l-0.054,-0c0,0.251 0.005,0.654 0.014,1.209c0.009,0.556 0.013,0.995 0.013,1.318l0,10.806l-4.17,0Z"/>
</svg>
